<svg height="20" viewBox="0 0 20 20" width="20" xmlns="http://www.w3.org/2000/svg"><path d="m382.9994 7567.0001c-.552 0-.999.448-.999 1v2c0 .552-.45 1-1.002 1h-5.998v-11c0-.552-.449-1-1.001-1s-.999.448-.999 1v7h-6.002c-.552 0-.998-.448-.998-1v-2c0-.552-.449-1-1.001-1s-.999.448-.999 1v3c0 1.104.893 2 1.998 2h7.002v8h-3.002c-.546 0-.985.334-.995.875.019.543.455 1.125.995 1.125h8c.552 0 1.002-.555 1.002-1.108v-.053c0-.553-.45-.839-1.002-.839h-2.998v-4h6.998c1.104 0 2.002-.896 2.002-2v-3c0-.552-.449-1-1.001-1zm-13.999 10.839c0 .012.003.024.003.036 0 .007-.003.011-.003.017z" fill-rule="evenodd" transform="translate(-364 -7559)"/></svg>