<svg height="20" viewBox="0 0 20 20" width="20" xmlns="http://www.w3.org/2000/svg"><path d="m330 3214c0-.552-.448-1-1-1h-2c-.552 0-1 .448-1 1v2c0 .552.448 1 1 1h2c.552 0 1-.448 1-1zm2-1v4c0 1.105-.895 2-2 2h-4c-1.105 0-2-.895-2-2v-4c0-1.105.895-2 2-2h4c1.105 0 2 .895 2 2zm8-3.99c-.552 0-1 .447-1 1v3c0 .552-.448.99-1 .99h-3c-.552 0-1 .448-1 1s.448 1 1 1h4c1.105 0 2-.886 2-1.99v-4c0-.553-.448-1-1-1zm2-7.01c0-.552-.448-1-1-1h-2c-.552 0-1 .448-1 1v2c0 .552.448 1 1 1h2c.552 0 1-.448 1-1zm2-1v4c0 1.105-.895 2-2 2h-4c-1.105 0-2-.895-2-2v-4c0-1.105.895-2 2-2h4c1.105 0 2 .895 2 2zm-10 2c0 .552-.448 1-1 1h-3c-.552 0-1 .457-1 1.01v3c0 .552-.448 1-1 1s-1-.448-1-1v-4c0-1.105.895-2.01 2-2.01h4c.552 0 1 .448 1 1z" fill-rule="evenodd" transform="translate(-324 -3199)"/></svg>